<svg width="108" height="122" viewBox="0 0 108 122" fill="none" xmlns="http://www.w3.org/2000/svg">
<g clip-path="url(#clip0_2251_5894)">
<path d="M9.30615 94.6635L54.6891 117.729L98.3487 94.6635V4.4668H9.30615V94.6635Z" fill="white"/>
<path d="M99.2681 4.81152L8.38721 96.2705L55.4936 119.566L99.2681 97.1886V4.81152Z" fill="#F2F3F2"/>
<path d="M6.31934 34.5326V96.6146L7.92785 97.4178L53.3108 120.483L54.6895 121.172L56.0683 120.483L99.8427 97.4178L101.451 96.6146V1.4834H6.31934V34.5326ZM9.30657 94.8932V4.46701H98.464V94.8932L54.6895 117.959L9.30657 94.8932Z" fill="#DCDEDC"/>
<path d="M53.885 5.95881C54.3446 5.95881 54.8041 5.95881 55.2637 6.07356L53.885 8.71291C51.8169 8.59815 49.9786 10.2047 49.8637 12.2703C49.7488 14.3359 51.3573 16.1719 53.4254 16.2867H53.885C54.8042 16.2867 55.7233 15.9424 56.4127 15.3686L57.9063 17.8932C56.7573 18.6965 55.3786 19.1555 53.885 19.1555C50.2084 19.2703 47.1063 16.5162 46.9914 12.8441C46.8765 9.17192 49.6339 6.07356 53.3105 5.95881H53.885ZM58.5956 11.5818L60.319 14.4506L58.5956 17.2047L56.9871 14.4506H53.6552L55.3786 11.5818H58.5956ZM55.8382 10.549C55.8382 10.09 55.9531 9.63094 56.1829 9.28668C56.4127 8.94242 56.8722 8.59815 57.2169 8.36864L57.4467 8.25389C57.9063 8.02438 58.0212 7.90963 58.0212 7.68012C58.0212 7.45061 57.6765 7.2211 57.4467 7.2211C56.9871 7.2211 56.6424 7.45061 56.4127 7.90963L55.8382 7.33586C55.9531 7.10635 56.1829 6.87684 56.4127 6.64733C56.7573 6.41782 57.102 6.41783 57.4467 6.41783C57.7914 6.41783 58.251 6.53258 58.4807 6.76209C58.7105 6.9916 58.9403 7.33586 58.9403 7.68012C58.9403 8.25389 58.5956 8.71291 57.9063 8.94242L57.5616 9.17192C57.2169 9.40143 56.9871 9.51619 56.8722 9.86045H58.9403V10.6637L55.8382 10.549ZM53.885 24.8932L64.7999 18.6965V1.4834H42.8552V18.5818L53.885 24.8932ZM103.634 65.5162H4.13607L0.459473 73.549L4.13607 81.5818H103.634L107.196 73.549L103.634 65.5162Z" fill="#FF492C"/>
<path d="M21.9332 60.3526C21.8642 60.3526 21.8068 60.3296 21.7608 60.2837C21.7149 60.2302 21.6919 60.169 21.6919 60.1001V46.146C21.6919 46.0772 21.7149 46.016 21.7608 45.9624C21.8068 45.9165 21.8642 45.8936 21.9332 45.8936H24.3574C24.4264 45.8936 24.4838 45.9165 24.5298 45.9624C24.5834 46.016 24.6102 46.0772 24.6102 46.146V57.7477C24.6102 57.8165 24.6447 57.8509 24.7136 57.8509H31.4693C31.5383 57.8509 31.5996 57.8739 31.6532 57.9198C31.6991 57.9733 31.7221 58.0345 31.7221 58.1034V60.1001C31.7221 60.169 31.6991 60.2302 31.6532 60.2837C31.5996 60.3296 31.5383 60.3526 31.4693 60.3526H21.9332ZM42.7404 53.9493C42.8247 54.4695 42.8515 55.0548 42.8208 55.705C42.8132 55.8733 42.7251 55.9575 42.5566 55.9575H36.1685C36.0842 55.9575 36.0574 55.9919 36.0881 56.0608C36.1264 56.3362 36.1991 56.6116 36.3064 56.887C36.6664 57.652 37.3979 58.0345 38.5008 58.0345C39.3817 58.0269 40.0787 57.6711 40.5919 56.9673C40.6455 56.8832 40.7068 56.8411 40.7757 56.8411C40.8217 56.8411 40.8715 56.8679 40.9251 56.9214L42.4072 58.3903C42.4762 58.4591 42.5106 58.5203 42.5106 58.5739C42.5106 58.6045 42.4838 58.6619 42.4302 58.746C41.9783 59.3045 41.3923 59.7406 40.6723 60.0542C39.96 60.3602 39.1749 60.5132 38.317 60.5132C37.1298 60.5132 36.1264 60.2455 35.3068 59.7099C34.4872 59.1744 33.8974 58.4247 33.5374 57.4608C33.2464 56.7722 33.1008 55.8695 33.1008 54.7526C33.1008 53.9952 33.2042 53.3296 33.411 52.7558C33.7327 51.7766 34.2881 50.9963 35.077 50.4149C35.8736 49.8411 36.8157 49.5542 37.9034 49.5542C39.2821 49.5542 40.3889 49.952 41.2238 50.7477C42.0587 51.5433 42.5642 52.6105 42.7404 53.9493ZM37.9264 52.0673C37.0532 52.0673 36.4787 52.4728 36.203 53.2837C36.1493 53.4673 36.1034 53.6892 36.0651 53.9493C36.0651 54.0181 36.0996 54.0526 36.1685 54.0526H39.7417C39.8259 54.0526 39.8527 54.0181 39.8221 53.9493C39.7532 53.5515 39.7187 53.3602 39.7187 53.3755C39.5962 52.9624 39.3817 52.6411 39.0753 52.4116C38.7613 52.1821 38.3783 52.0673 37.9264 52.0673ZM48.7608 49.5657C49.657 49.5657 50.4574 49.7225 51.1621 50.0362C51.8668 50.3422 52.4144 50.7668 52.8051 51.3099C53.1957 51.8455 53.391 52.4422 53.391 53.1001V60.1001C53.391 60.169 53.3681 60.2302 53.3221 60.2837C53.2762 60.3296 53.2187 60.3526 53.1498 60.3526H50.7255C50.6566 60.3526 50.5991 60.3296 50.5532 60.2837C50.4996 60.2302 50.4727 60.169 50.4727 60.1001V59.4231C50.4727 59.3848 50.4613 59.358 50.4383 59.3427C50.4076 59.3274 50.3808 59.3389 50.3579 59.3772C49.7757 60.1345 48.8451 60.5132 47.5659 60.5132C46.4859 60.5132 45.6166 60.2531 44.9579 59.7329C44.2915 59.2127 43.9583 58.44 43.9583 57.4149C43.9583 56.3591 44.3336 55.5367 45.0842 54.9477C45.8272 54.3662 46.8881 54.0755 48.2668 54.0755H50.3693C50.4383 54.0755 50.4727 54.0411 50.4727 53.9722V53.5132C50.4727 53.0619 50.3349 52.7061 50.0591 52.446C49.7834 52.1936 49.3698 52.0673 48.8183 52.0673C48.397 52.0673 48.0447 52.1438 47.7613 52.2968C47.4779 52.4498 47.294 52.664 47.2098 52.9395C47.1715 53.0925 47.0834 53.1613 46.9455 53.146L44.4408 52.8132C44.2723 52.7826 44.1957 52.7214 44.211 52.6296C44.2647 52.0482 44.4945 51.5242 44.9004 51.0575C45.3064 50.5908 45.8464 50.2274 46.5204 49.9673C47.1868 49.6996 47.9336 49.5657 48.7608 49.5657ZM48.3472 58.3444C48.937 58.3444 49.4387 58.1875 49.8523 57.8739C50.2659 57.5602 50.4727 57.1548 50.4727 56.6575V55.9116C50.4727 55.8427 50.4383 55.8083 50.3693 55.8083H48.8872C48.2668 55.8083 47.7804 55.9269 47.4281 56.164C47.0757 56.3936 46.8996 56.7225 46.8996 57.1509C46.8996 57.5258 47.0298 57.8165 47.2902 58.0231C47.5506 58.2373 47.903 58.3444 48.3472 58.3444ZM62.0425 46.146C62.0425 46.0772 62.0655 46.016 62.1115 45.9624C62.1574 45.9165 62.2149 45.8936 62.2838 45.8936H64.7081C64.777 45.8936 64.8345 45.9165 64.8804 45.9624C64.9264 46.016 64.9493 46.0772 64.9493 46.146V60.1001C64.9493 60.169 64.9264 60.2302 64.8804 60.2837C64.8345 60.3296 64.777 60.3526 64.7081 60.3526H62.2838C62.2149 60.3526 62.1574 60.3296 62.1115 60.2837C62.0655 60.2302 62.0425 60.169 62.0425 60.1001V59.4231C62.0425 59.3848 62.0272 59.3619 61.9966 59.3542C61.9659 59.3466 61.9391 59.3542 61.9162 59.3772C61.334 60.1345 60.5413 60.5132 59.5379 60.5132C58.5728 60.5132 57.7417 60.2455 57.0447 59.7099C56.3476 59.1744 55.8459 58.44 55.5396 57.5067C55.3098 56.7875 55.1949 55.9537 55.1949 55.005C55.1949 54.0258 55.3174 53.1728 55.5625 52.446C55.8842 51.5586 56.3859 50.8586 57.0676 50.346C57.7493 49.8258 58.5919 49.5657 59.5953 49.5657C60.591 49.5657 61.3647 49.9099 61.9162 50.5985C61.9391 50.6444 61.9659 50.6597 61.9966 50.6444C62.0272 50.6291 62.0425 50.6023 62.0425 50.564V46.146ZM61.6059 57.128C61.8817 56.6231 62.0196 55.9269 62.0196 55.0395C62.0196 54.1214 61.8664 53.3985 61.56 52.8706C61.2459 52.3351 60.7864 52.0673 60.1813 52.0673C59.5302 52.0673 59.04 52.3351 58.7106 52.8706C58.3659 53.4138 58.1936 54.1444 58.1936 55.0624C58.1936 55.8886 58.3391 56.5772 58.6302 57.128C58.9749 57.7247 59.4842 58.0231 60.1583 58.0231C60.7787 58.0231 61.2613 57.7247 61.6059 57.128ZM76.5536 53.9493C76.6379 54.4695 76.6647 55.0548 76.634 55.705C76.6264 55.8733 76.5383 55.9575 76.3698 55.9575H69.9817C69.8974 55.9575 69.8706 55.9919 69.9013 56.0608C69.9396 56.3362 70.0123 56.6116 70.1196 56.887C70.4796 57.652 71.211 58.0345 72.314 58.0345C73.1949 58.0269 73.8919 57.6711 74.4051 56.9673C74.4587 56.8832 74.52 56.8411 74.5889 56.8411C74.6349 56.8411 74.6847 56.8679 74.7383 56.9214L76.2204 58.3903C76.2893 58.4591 76.3238 58.5203 76.3238 58.5739C76.3238 58.6045 76.297 58.6619 76.2434 58.746C75.7915 59.3045 75.2055 59.7406 74.4855 60.0542C73.7732 60.3602 72.9881 60.5132 72.1302 60.5132C70.943 60.5132 69.9396 60.2455 69.12 59.7099C68.3004 59.1744 67.7106 58.4247 67.3506 57.4608C67.0596 56.7722 66.914 55.8695 66.914 54.7526C66.914 53.9952 67.0174 53.3296 67.2242 52.7558C67.5459 51.7766 68.1013 50.9963 68.8902 50.4149C69.6868 49.8411 70.6289 49.5542 71.7166 49.5542C73.0953 49.5542 74.2021 49.952 75.037 50.7477C75.8719 51.5433 76.3774 52.6105 76.5536 53.9493ZM71.7396 52.0673C70.8664 52.0673 70.2919 52.4728 70.0162 53.2837C69.9625 53.4673 69.9166 53.6892 69.8783 53.9493C69.8783 54.0181 69.9128 54.0526 69.9817 54.0526H73.5549C73.6391 54.0526 73.6659 54.0181 73.6353 53.9493C73.5664 53.5515 73.5319 53.3602 73.5319 53.3755C73.4093 52.9624 73.1949 52.6411 72.8885 52.4116C72.5744 52.1821 72.1915 52.0673 71.7396 52.0673ZM83.7345 49.5886C84.2323 49.5886 84.623 49.6843 84.9064 49.8755C85.0213 49.9367 85.0634 50.04 85.0328 50.1854L84.5962 52.5493C84.5885 52.7099 84.4928 52.7558 84.3089 52.687C84.1021 52.6181 83.8608 52.5837 83.5851 52.5837C83.4779 52.5837 83.3285 52.599 83.137 52.6296C82.6391 52.6679 82.2179 52.8477 81.8732 53.169C81.5285 53.4979 81.3562 53.9302 81.3562 54.4657V60.1001C81.3562 60.169 81.3332 60.2302 81.2872 60.2837C81.2336 60.3296 81.1723 60.3526 81.1034 60.3526H78.6906C78.6217 60.3526 78.5604 60.3296 78.5068 60.2837C78.4608 60.2302 78.4379 60.169 78.4379 60.1001V49.9788C78.4379 49.9099 78.4608 49.8526 78.5068 49.8067C78.5604 49.7608 78.6217 49.7378 78.6906 49.7378H81.1034C81.1723 49.7378 81.2336 49.7608 81.2872 49.8067C81.3332 49.8526 81.3562 49.9099 81.3562 49.9788V50.7706C81.3562 50.8089 81.3676 50.8356 81.3906 50.8509C81.4213 50.8662 81.4442 50.8586 81.4596 50.828C82.0264 50.0018 82.7847 49.5886 83.7345 49.5886Z" fill="#252530"/>
<path d="M46.4857 71.002C46.4857 71.0403 46.4704 71.0709 46.4398 71.0938C46.4168 71.1244 46.3862 71.1397 46.3479 71.1397H42.4415C42.4032 71.1397 42.384 71.1588 42.384 71.1971V73.343C42.384 73.3813 42.4032 73.4004 42.4415 73.4004H45.0725C45.1108 73.4004 45.1453 73.4119 45.176 73.4348C45.1989 73.4654 45.2104 73.4998 45.2104 73.5381V74.4102C45.2104 74.4485 45.1989 74.4829 45.176 74.5135C45.1453 74.5364 45.1108 74.5479 45.0725 74.5479H42.4415C42.4032 74.5479 42.384 74.567 42.384 74.6053V77.8873C42.384 77.9255 42.3687 77.9561 42.3381 77.9791C42.3151 78.0097 42.2845 78.025 42.2462 78.025H41.1891C41.1508 78.025 41.1202 78.0097 41.0972 77.9791C41.0666 77.9561 41.0513 77.9255 41.0513 77.8873V70.1299C41.0513 70.0916 41.0666 70.061 41.0972 70.0381C41.1202 70.0075 41.1508 69.9922 41.1891 69.9922H46.3479C46.3862 69.9922 46.4168 70.0075 46.4398 70.0381C46.4704 70.061 46.4857 70.0916 46.4857 70.1299V71.002ZM51.7249 78.025C51.6483 78.025 51.5985 77.9867 51.5755 77.9102L51.1964 76.6824C51.1811 76.6518 51.1619 76.6365 51.1389 76.6365H48.1057C48.0828 76.6365 48.0636 76.6518 48.0483 76.6824L47.6691 77.9102C47.6462 77.9867 47.5964 78.025 47.5198 78.025H46.3708C46.3249 78.025 46.2904 78.0097 46.2674 77.9791C46.2445 77.9561 46.2406 77.9179 46.2559 77.8643L48.7491 70.1069C48.7721 70.0304 48.8219 69.9922 48.8985 69.9922H50.3347C50.4113 69.9922 50.4611 70.0304 50.484 70.1069L52.9887 77.8643C52.9964 77.8796 53.0002 77.8987 53.0002 77.9217C53.0002 77.9905 52.9581 78.025 52.8738 78.025H51.7249ZM48.4045 75.5233C48.3968 75.5692 48.4121 75.5922 48.4504 75.5922H50.7828C50.8287 75.5922 50.844 75.5692 50.8287 75.5233L49.6453 71.6791C49.6377 71.6485 49.6262 71.6332 49.6108 71.6332C49.5955 71.6332 49.584 71.6485 49.5764 71.6791L48.4045 75.5233ZM54.3215 78.025C54.2832 78.025 54.2525 78.0097 54.2296 77.9791C54.1989 77.9561 54.1836 77.9255 54.1836 77.8873V70.1299C54.1836 70.0916 54.1989 70.061 54.2296 70.0381C54.2525 70.0075 54.2832 69.9922 54.3215 69.9922H55.3785C55.4168 69.9922 55.4513 70.0075 55.4819 70.0381C55.5049 70.061 55.5164 70.0916 55.5164 70.1299V76.8201C55.5164 76.8583 55.5355 76.8774 55.5738 76.8774H59.4228C59.4611 76.8774 59.4917 76.8927 59.5147 76.9233C59.5453 76.9463 59.5606 76.9769 59.5606 77.0151V77.8873C59.5606 77.9255 59.5453 77.9561 59.5147 77.9791C59.4917 78.0097 59.4611 78.025 59.4228 78.025H54.3215ZM60.8819 78.025C60.8436 78.025 60.813 78.0097 60.79 77.9791C60.7594 77.9561 60.744 77.9255 60.744 77.8873V70.1299C60.744 70.0916 60.7594 70.061 60.79 70.0381C60.813 70.0075 60.8436 69.9922 60.8819 69.9922H61.9389C61.9772 69.9922 62.0117 70.0075 62.0423 70.0381C62.0653 70.061 62.0768 70.0916 62.0768 70.1299V76.8201C62.0768 76.8583 62.096 76.8774 62.1343 76.8774H65.9832C66.0215 76.8774 66.056 76.8927 66.0866 76.9233C66.1096 76.9463 66.1211 76.9769 66.1211 77.0151V77.8873C66.1211 77.9255 66.1096 77.9561 66.0866 77.9791C66.056 78.0097 66.0215 78.025 65.9832 78.025H60.8819Z" fill="white"/>
<path d="M39.0981 98.749C39.0751 98.7719 39.0675 98.7949 39.0751 98.8178C39.0904 98.8408 39.1134 98.8523 39.1441 98.8523H43.6594C43.713 98.8523 43.759 98.8714 43.7973 98.9096C43.8432 98.9479 43.8662 98.9938 43.8662 99.0473V100.665C43.8662 100.719 43.8432 100.765 43.7973 100.803C43.759 100.841 43.713 100.86 43.6594 100.86H36.1683C36.107 100.86 36.0573 100.841 36.019 100.803C35.9807 100.765 35.9615 100.719 35.9615 100.665V99.1277C35.9615 99.0282 35.996 98.944 36.0649 98.8752C36.6087 98.3473 37.1641 97.7697 37.7309 97.1424C38.2977 96.5151 38.6539 96.1249 38.7994 95.9719C39.1058 95.6047 39.4198 95.2528 39.7415 94.9162C40.7526 93.7992 41.2581 92.9692 41.2581 92.426C41.2581 92.0358 41.1202 91.7145 40.8445 91.4621C40.5687 91.2173 40.2087 91.0949 39.7645 91.0949C39.3202 91.0949 38.9602 91.2173 38.6845 91.4621C38.4011 91.7145 38.2594 92.0473 38.2594 92.4604V92.8736C38.2594 92.9271 38.2402 92.973 38.2019 93.0113C38.1636 93.0495 38.1177 93.0686 38.0641 93.0686H36.0994C36.0458 93.0686 35.9998 93.0495 35.9615 93.0113C35.9156 92.973 35.8926 92.9271 35.8926 92.8736V92.0932C35.9309 91.4965 36.1224 90.9648 36.467 90.4981C36.8117 90.0391 37.2675 89.6872 37.8343 89.4424C38.4087 89.1976 39.0522 89.0752 39.7645 89.0752C40.5534 89.0752 41.239 89.2244 41.8211 89.5227C42.4032 89.8134 42.8513 90.2074 43.1653 90.7047C43.487 91.2096 43.6479 91.7643 43.6479 92.3686C43.6479 92.8353 43.5292 93.3134 43.2917 93.8031C43.0619 94.2927 42.7134 94.8206 42.2462 95.3867C41.9015 95.8151 41.53 96.2435 41.1317 96.6719C40.7334 97.0927 40.1398 97.7009 39.3509 98.4965L39.0981 98.749ZM49.2777 101.044C48.0522 101.044 47.087 100.704 46.3824 100.023C45.67 99.3419 45.3139 98.4124 45.3139 97.2342V92.8391C45.3139 91.6839 45.67 90.7697 46.3824 90.0965C47.087 89.4156 48.0522 89.0752 49.2777 89.0752C50.4956 89.0752 51.4645 89.4156 52.1845 90.0965C52.8968 90.7697 53.253 91.6839 53.253 92.8391V97.2342C53.253 98.4124 52.8968 99.3419 52.1845 100.023C51.4645 100.704 50.4956 101.044 49.2777 101.044ZM49.2777 99.0359C49.7756 99.0359 50.17 98.8828 50.4611 98.5768C50.7598 98.2708 50.9092 97.8615 50.9092 97.349V92.7703C50.9092 92.2654 50.7598 91.8599 50.4611 91.5539C50.17 91.2479 49.7756 91.0949 49.2777 91.0949C48.7875 91.0949 48.3968 91.2479 48.1058 91.5539C47.807 91.8599 47.6577 92.2654 47.6577 92.7703V97.349C47.6577 97.8615 47.807 98.2708 48.1058 98.5768C48.3968 98.8828 48.7875 99.0359 49.2777 99.0359ZM57.9177 98.749C57.8947 98.7719 57.8909 98.7949 57.9062 98.8178C57.9139 98.8408 57.9368 98.8523 57.9751 98.8523H62.4905C62.5441 98.8523 62.59 98.8714 62.6283 98.9096C62.6666 98.9479 62.6858 98.9938 62.6858 99.0473V100.665C62.6858 100.719 62.6666 100.765 62.6283 100.803C62.59 100.841 62.5441 100.86 62.4905 100.86H54.9879C54.9343 100.86 54.8883 100.841 54.85 100.803C54.8117 100.765 54.7926 100.719 54.7926 100.665V99.1277C54.7926 99.0282 54.8232 98.944 54.8845 98.8752C55.436 98.3473 55.9913 97.7697 56.5505 97.1424C57.1173 96.5151 57.4734 96.1249 57.619 95.9719C57.933 95.6047 58.2509 95.2528 58.5726 94.9162C59.5836 93.7992 60.0892 92.9692 60.0892 92.426C60.0892 92.0358 59.9513 91.7145 59.6756 91.4621C59.3922 91.2173 59.0283 91.0949 58.5841 91.0949C58.1398 91.0949 57.7798 91.2173 57.5041 91.4621C57.2283 91.7145 57.0905 92.0473 57.0905 92.4604V92.8736C57.0905 92.9271 57.0713 92.973 57.033 93.0113C56.9947 93.0495 56.9449 93.0686 56.8836 93.0686H54.919C54.8653 93.0686 54.8194 93.0495 54.7811 93.0113C54.7428 92.973 54.7236 92.9271 54.7236 92.8736V92.0932C54.7543 91.4965 54.9419 90.9648 55.2866 90.4981C55.6313 90.0391 56.0909 89.6872 56.6653 89.4424C57.2398 89.1976 57.8794 89.0752 58.5841 89.0752C59.373 89.0752 60.0585 89.2244 60.6407 89.5227C61.2305 89.8134 61.6824 90.2074 61.9964 90.7047C62.3105 91.2096 62.4675 91.7643 62.4675 92.3686C62.4675 92.8353 62.3526 93.3134 62.1228 93.8031C61.8853 94.2927 61.533 94.8206 61.0658 95.3867C60.7211 95.8151 60.3496 96.2435 59.9513 96.6719C59.553 97.0927 58.9594 97.7009 58.1705 98.4965L57.9177 98.749ZM71.0845 95.3063C71.3066 95.8113 71.4177 96.3965 71.4177 97.0621C71.4177 97.6665 71.3181 98.2211 71.119 98.726C70.8509 99.4375 70.4028 99.9921 69.7747 100.39C69.1466 100.795 68.4036 100.998 67.5458 100.998C66.7032 100.998 65.9641 100.788 65.3283 100.367C64.6926 99.9386 64.233 99.3648 63.9496 98.6457C63.7964 98.2173 63.7083 97.7506 63.6853 97.2457C63.6853 97.1156 63.7505 97.0506 63.8807 97.0506H65.8568C65.987 97.0506 66.0522 97.1156 66.0522 97.2457C66.0981 97.6129 66.1594 97.8845 66.236 98.0604C66.3356 98.3512 66.5002 98.5768 66.73 98.7375C66.9522 98.8981 67.2202 98.9785 67.5343 98.9785C68.1547 98.9785 68.5836 98.7069 68.8211 98.1637C68.9743 97.8348 69.0509 97.4484 69.0509 97.0047C69.0509 96.4768 68.9666 96.0484 68.7981 95.7195C68.5453 95.1992 68.1202 94.9391 67.5228 94.9391C67.4002 94.9391 67.27 94.9736 67.1322 95.0424C67.0019 95.1189 66.8411 95.2222 66.6496 95.3522C66.6036 95.3828 66.5615 95.3981 66.5232 95.3981C66.4543 95.3981 66.4045 95.3675 66.3739 95.3063L65.3858 93.9178C65.3628 93.8872 65.3513 93.849 65.3513 93.8031C65.3513 93.7342 65.3743 93.6807 65.4202 93.6424L68.0628 91.3244C68.0858 91.3014 68.0973 91.2785 68.0973 91.2555C68.0896 91.2326 68.0705 91.2211 68.0398 91.2211H64.1219C64.0683 91.2211 64.0185 91.202 63.9726 91.1637C63.9343 91.1255 63.9151 91.0796 63.9151 91.026V89.408C63.9151 89.3544 63.9343 89.3085 63.9726 89.2703C64.0185 89.232 64.0683 89.2129 64.1219 89.2129H71.0615C71.1228 89.2129 71.1726 89.232 71.2109 89.2703C71.2492 89.3085 71.2683 89.3544 71.2683 89.408V91.244C71.2683 91.3282 71.23 91.4124 71.1534 91.4965L68.9705 93.4932C68.9475 93.5162 68.9398 93.5353 68.9475 93.5506C68.9475 93.5736 68.9705 93.585 69.0164 93.585C69.9815 93.7763 70.6709 94.3501 71.0845 95.3063Z" fill="#252530"/>
</g>
<defs>
<clipPath id="clip0_2251_5894">
<rect width="108" height="121" fill="white" transform="translate(0 0.5)"/>
</clipPath>
</defs>
</svg>
